<svg width="41" height="473" viewBox="0 0 41 473" fill="none" xmlns="http://www.w3.org/2000/svg">
<path d="M40.0117 237.075C16.0976 209.654 20.639 178.925 23.0151 148.886C24.1265 134.875 29.0319 121.165 31.3314 107.189C36.5434 75.6814 31.5996 45.3062 16.7874 16.5409C13.4532 10.0838 7.45555 4.77652 0.135684 -6.09735e-06C31.2739 35.1694 26.8858 59.4412 10.8281 111.045C2.28182 138.537 3.58483 157.183 9.41007 184.958C12.591 200.172 23.8007 223.188 36.7925 237.446C21.9995 248.645 10.0041 284.539 6.86153 310.757C5.13696 325.034 6.05673 337.311 9.41007 358.717C11.5945 372.675 22.3636 394.63 23.8965 408.641C26.3301 430.878 17.5539 454.991 3.31657 473C6.07589 470.382 9.50588 468.135 11.4796 465.11C32.9601 432.4 37.1374 397.319 30.105 360.062C25.8319 337.47 23.7432 314.472 21.6929 291.58C19.9875 272.474 25.372 254.713 40.0117 237.075Z" fill="black"/>
</svg>
