<svg width="44" height="17" viewBox="0 0 44 17" fill="none" xmlns="http://www.w3.org/2000/svg">
<path d="M6.04102 1.70313C6.85482 1.70313 7.60352 1.83984 8.28711 2.11328C8.97721 2.38672 9.52409 2.78385 9.92773 3.30469C10.3379 3.81901 10.543 4.43099 10.543 5.14063C10.543 6.00651 10.2858 6.74544 9.77148 7.35742C9.25716 7.9694 8.58659 8.3763 7.75977 8.57812V8.72461C8.78841 8.88737 9.61198 9.26172 10.2305 9.84766C10.849 10.4271 11.1582 11.2181 11.1582 12.2207C11.1582 13.4902 10.7057 14.4538 9.80078 15.1113C8.89583 15.7689 7.75651 16.0977 6.38281 16.0977C5.70573 16.0977 4.95052 16.0781 4.11719 16.0391C3.04948 16.013 2.33008 16 1.95898 16C1.57487 16 1.19727 16.013 0.826172 16.0391C0.461589 16.0651 0.227214 16.0846 0.123047 16.0977L0.015625 14.7012L1.2168 14.457C1.25586 14.2422 1.29492 13.9492 1.33398 13.5781C1.37956 13.207 1.40234 12.9271 1.40234 12.7383L1.40234 5.75586C1.40234 5.35872 1.38607 4.94857 1.35352 4.52539C1.32096 4.0957 1.27539 3.76693 1.2168 3.53906L0.0351562 3.30469L0.142578 1.80078C0.246745 1.8138 0.48112 1.83333 0.845703 1.85938C1.2168 1.88542 1.5944 1.89844 1.97852 1.89844C2.44727 1.89844 3.11458 1.86589 3.98047 1.80078C4.26042 1.78776 4.625 1.76823 5.07422 1.74219C5.52995 1.71615 5.85221 1.70313 6.04102 1.70313ZM4.55664 3.42188C4.54362 3.60417 4.5306 3.87435 4.51758 4.23242C4.50456 4.58398 4.49805 4.89323 4.49805 5.16016L4.49805 12.1426C4.49805 13.0866 4.51758 13.8385 4.55664 14.3984C4.91471 14.4375 5.28906 14.457 5.67969 14.457C6.41536 14.457 7.0013 14.2357 7.4375 13.793C7.88021 13.3438 8.10156 12.7253 8.10156 11.9375C8.10156 10.375 7.22266 9.59701 5.46484 9.60352H5.25977L5.39648 7.85547H5.52344C6.1875 7.85547 6.70508 7.64714 7.07617 7.23047C7.45378 6.80729 7.64258 6.19206 7.64258 5.38477C7.64258 4.81185 7.44401 4.33008 7.04687 3.93945C6.65625 3.54232 6.15495 3.34375 5.54297 3.34375C5.3151 3.34375 4.98633 3.36979 4.55664 3.42188ZM17.916 14.5645C17.61 15.1243 17.2292 15.5378 16.7734 15.8047C16.3242 16.0651 15.7839 16.1953 15.1523 16.1953C14.2474 16.1953 13.5312 15.9447 13.0039 15.4434C12.4766 14.9355 12.2129 14.2422 12.2129 13.3633C12.2129 11.8008 13.0951 10.8796 14.8594 10.5996L17.6914 10.1406V9.56445C17.6914 8.91341 17.5775 8.45117 17.3496 8.17773C17.1283 7.89779 16.7441 7.75781 16.1973 7.75781C15.9564 7.75781 15.6829 7.79688 15.377 7.875C15.071 7.94661 14.804 8.03451 14.5762 8.13867L14.4395 8.93945L14.459 9.79883L12.9551 9.85742L12.6523 6.47852C13.2643 6.32878 13.9186 6.20182 14.6152 6.09766C15.3118 5.99349 15.8783 5.94141 16.3145 5.94141C17.6361 5.94141 18.6615 6.25716 19.3906 6.88867C20.1263 7.52018 20.4941 8.40234 20.4941 9.53516V12.1426C20.4941 12.5527 20.5169 13.0052 20.5625 13.5C20.6146 13.9948 20.6536 14.3138 20.6797 14.457L21.8809 14.584L21.7539 16.0977C21.6237 16.0846 21.2559 16.0651 20.6504 16.0391C20.0514 16.013 19.1921 16 18.0723 16L17.916 14.5645ZM16.2168 11.6836C15.8457 11.7487 15.5788 11.8789 15.416 12.0742C15.2533 12.263 15.1719 12.5462 15.1719 12.9238C15.1719 13.7376 15.5332 14.1445 16.2559 14.1445C16.6009 14.1445 16.9036 14.0306 17.1641 13.8027C17.4245 13.5749 17.6003 13.2591 17.6914 12.8555V11.4395L16.2168 11.6836ZM27.5254 5.94141C28.0462 5.94141 28.5703 5.97721 29.0977 6.04883C29.625 6.12044 30.0612 6.19531 30.4062 6.27344C30.7513 6.34505 30.9694 6.39388 31.0605 6.41992L30.7676 9.96484L29.0684 9.89648L29.0879 8.82227C29.0618 8.47721 29.0358 8.2168 29.0098 8.04102C28.834 7.87826 28.6257 7.7513 28.3848 7.66016C28.1439 7.56901 27.916 7.52344 27.7012 7.52344C27.0501 7.52344 26.5716 7.81315 26.2656 8.39258C25.9596 8.97201 25.8066 9.8737 25.8066 11.0977C25.8066 13.2721 26.6074 14.3594 28.209 14.3594C28.6191 14.3594 28.9967 14.3138 29.3418 14.2227C29.6934 14.125 29.9668 14.0273 30.1621 13.9297C30.3639 13.832 30.4909 13.7637 30.543 13.7246L31.2461 14.877C30.7383 15.3327 30.1686 15.6842 29.5371 15.9316C28.9056 16.179 28.2676 16.3027 27.623 16.3027C25.9954 16.3027 24.7552 15.86 23.9023 14.9746C23.0495 14.0827 22.623 12.7904 22.623 11.0977C22.623 9.49609 23.0592 8.23633 23.9316 7.31836C24.804 6.40039 26.002 5.94141 27.5254 5.94141ZM31.8613 0.677734C32.0241 0.703776 32.3659 0.746094 32.8867 0.804688C33.4141 0.856771 33.8535 0.882813 34.2051 0.882813L35.9629 0.84375L36.3828 1.22461C36.3307 1.75846 36.2819 2.38672 36.2363 3.10938C36.1973 3.82552 36.1777 4.4082 36.1777 4.85742V12.1426C36.1777 12.5527 36.2005 13.0052 36.2461 13.5C36.2982 13.9948 36.3372 14.3138 36.3633 14.457L37.6621 14.584L37.5645 16.0977C37.4017 16.0846 37.0013 16.0651 36.3633 16.0391C35.7253 16.013 34.931 16 33.9805 16C33.5964 16 33.196 16.013 32.7793 16.0391C32.3691 16.0651 32.1022 16.0846 31.9785 16.0977L31.8809 14.7012L33.1992 14.457C33.2253 14.2552 33.2611 13.9622 33.3066 13.5781C33.3587 13.194 33.3848 12.9141 33.3848 12.7383V4.26172C33.3848 4.08594 33.3555 3.78971 33.2969 3.37305C33.2448 2.94987 33.2057 2.66667 33.1797 2.52344L31.6855 2.18164L31.8613 0.677734ZM37.9258 6.01953C38.1211 6.03255 38.5508 6.05208 39.2148 6.07813C39.8854 6.10417 40.5137 6.11719 41.0996 6.11719C41.5684 6.11719 42.0306 6.10742 42.4863 6.08789C42.9486 6.06836 43.2611 6.05208 43.4238 6.03906L43.3848 7.43555L42.3203 7.54297C41.8776 7.79688 41.5228 8.01497 41.2559 8.19727C40.9954 8.37305 40.8034 8.53255 40.6797 8.67578L39.3418 10.4043L40.8457 12.7578C40.9368 12.9076 41.2624 13.2624 41.8223 13.8223L42.418 14.457L43.6191 14.584L43.502 16.0977C43.3848 16.0846 43.0983 16.0651 42.6426 16.0391C42.1868 16.013 41.7214 16 41.2461 16H39.2832L38.6973 14.7988L38.6191 14.6426L38.1797 13.8027L36.4023 10.6973L38.9023 7.5625L37.8184 7.43555L37.9258 6.01953Z" fill="black"/>
</svg>
