<svg width="52" height="1080" viewBox="0 0 52 1080" fill="none" xmlns="http://www.w3.org/2000/svg">
<g filter="url(#filter0_d_811_100)">
<path d="M14.8965 1053.82C15.4694 1053.77 15.8568 1053.73 16.0586 1053.7L16.4395 1054.06L16.5762 1056.78L15.4238 1056.88C15.3783 1056.56 15.3034 1056.2 15.1992 1055.8C15.1862 1055.67 15.0527 1055.44 14.7988 1055.12C14.0632 1055.05 13.5228 1055.02 13.1777 1055.02H10.5605C10.4694 1055.99 10.4238 1056.73 10.4238 1057.24L10.4238 1060.24L11.2832 1060.28H12.7383C12.901 1060.28 13.1191 1060.25 13.3926 1060.2C13.666 1060.15 13.8483 1060.11 13.9395 1060.1L14.1152 1058.78L15.043 1058.88L15.0234 1060.56C15.0234 1061.07 15.0299 1061.53 15.043 1061.94C15.056 1062.34 15.069 1062.61 15.082 1062.74L14.1152 1062.86L13.9395 1061.52C13.8092 1061.5 13.5488 1061.48 13.1582 1061.45C12.7741 1061.41 12.5007 1061.4 12.3379 1061.4H11.2832C11.0553 1061.4 10.7689 1061.42 10.4238 1061.46V1064.66C10.4238 1065.03 10.4401 1065.42 10.4727 1065.83C10.5052 1066.24 10.5345 1066.55 10.5605 1066.78L12.5625 1066.92L12.416 1068.1C12.2467 1068.08 11.8496 1068.07 11.2246 1068.04C10.6061 1068.01 9.96484 1068 9.30078 1068C8.94271 1068.01 8.51302 1068.03 8.01172 1068.05C7.51042 1068.07 7.15234 1068.08 6.9375 1068.1L6.83984 1067.1L8.42188 1066.78C8.53906 1065.99 8.59766 1065.48 8.59766 1065.26L8.59766 1056.64C8.59766 1056.4 8.53906 1055.89 8.42188 1055.12L6.87891 1054.88L6.97656 1053.8C7.17839 1053.81 7.52669 1053.83 8.02148 1053.85C8.51628 1053.87 8.94271 1053.89 9.30078 1053.9H13.7832C13.9525 1053.9 14.3236 1053.87 14.8965 1053.82ZM19.7891 1053.6C20.1602 1053.6 20.4466 1053.71 20.6484 1053.94C20.8568 1054.17 20.9609 1054.49 20.9609 1054.9C20.9609 1055.29 20.8568 1055.6 20.6484 1055.83C20.4466 1056.07 20.1602 1056.18 19.7891 1056.18C19.418 1056.18 19.1283 1056.07 18.9199 1055.83C18.7116 1055.6 18.6074 1055.29 18.6074 1054.9C18.6074 1054.52 18.7083 1054.21 18.9102 1053.97C19.1185 1053.72 19.4115 1053.6 19.7891 1053.6ZM22.2402 1068.1C22.123 1068.08 21.8301 1068.07 21.3613 1068.04C20.8991 1068.01 20.3327 1068 19.6621 1068C19.3171 1068.01 18.9102 1068.03 18.4414 1068.05C17.9792 1068.07 17.6471 1068.08 17.4453 1068.1L17.3477 1067.1L18.8613 1066.78C18.8874 1066.66 18.9264 1066.42 18.9785 1066.06C19.0371 1065.69 19.0664 1065.42 19.0664 1065.26L19.0664 1060.94C19.0664 1060.78 19.0371 1060.51 18.9785 1060.15C18.9264 1059.78 18.8874 1059.54 18.8613 1059.42L17.3477 1059.1L17.4453 1058.04C17.6081 1058.05 17.8783 1058.07 18.2559 1058.09C18.6335 1058.11 18.9753 1058.12 19.2812 1058.12H20.4434L20.8242 1058.48C20.8112 1058.71 20.7852 1059.17 20.7461 1059.88C20.707 1060.57 20.6875 1061.12 20.6875 1061.54L20.6875 1064.66C20.6875 1065.07 20.707 1065.49 20.7461 1065.93C20.7852 1066.37 20.8112 1066.65 20.8242 1066.78L22.3867 1066.92L22.2402 1068.1ZM34.2422 1068.1C34.125 1068.08 33.832 1068.07 33.3633 1068.04C32.8945 1068.01 32.3281 1068 31.6641 1068C31.3451 1068.01 30.9674 1068.03 30.5313 1068.05C30.0951 1068.07 29.7923 1068.08 29.623 1068.1L29.5254 1067.1L30.8633 1066.78C30.9935 1066.19 31.0586 1065.69 31.0586 1065.26V1062.48C31.0586 1060.27 30.3717 1059.16 28.998 1059.16C28.2233 1059.16 27.6048 1059.47 27.1426 1060.09C26.6868 1060.71 26.4525 1061.52 26.4395 1062.52V1064.66C26.4395 1065.07 26.459 1065.49 26.498 1065.93C26.5371 1066.37 26.5632 1066.65 26.5762 1066.78L28.1387 1066.92L28.002 1068.1C27.8848 1068.08 27.5918 1068.07 27.123 1068.04C26.6543 1068.01 26.0879 1068 25.4238 1068C25.0788 1068.01 24.6719 1068.03 24.2031 1068.05C23.7344 1068.07 23.3991 1068.08 23.1973 1068.1L23.0996 1067.1L24.623 1066.78C24.6361 1066.68 24.6654 1066.48 24.7109 1066.2C24.7565 1065.92 24.7923 1065.64 24.8184 1065.36V1060.94C24.8184 1060.76 24.7923 1060.5 24.7402 1060.14C24.6882 1059.78 24.6491 1059.54 24.623 1059.42L23.0996 1059.1L23.1973 1058.04C23.36 1058.05 23.6302 1058.07 24.0078 1058.09C24.3919 1058.11 24.737 1058.12 25.043 1058.12H25.7559L26.1367 1058.48L26.2637 1059.76C26.5306 1059.25 26.9245 1058.82 27.4453 1058.47C27.9727 1058.12 28.5911 1057.94 29.3008 1057.94C30.5964 1057.94 31.4818 1058.32 31.957 1059.07C32.4388 1059.82 32.6797 1060.96 32.6797 1062.48V1064.66C32.6797 1065.07 32.6992 1065.49 32.7383 1065.93C32.7773 1066.37 32.8034 1066.65 32.8164 1066.78L34.3789 1066.92L34.2422 1068.1ZM40.0137 1066.9C40.5215 1066.9 40.9935 1066.84 41.4297 1066.72C41.8724 1066.6 42.2435 1066.46 42.543 1066.32C42.8424 1066.17 42.9922 1066.09 42.9922 1066.08L43.5488 1067C43.5488 1067.03 43.3893 1067.15 43.0703 1067.36C42.7513 1067.56 42.3281 1067.75 41.8008 1067.93C41.2734 1068.11 40.6777 1068.2 40.0137 1068.2C38.5358 1068.2 37.3997 1067.73 36.6055 1066.81C35.8112 1065.88 35.4141 1064.65 35.4141 1063.1C35.4141 1061.54 35.7819 1060.29 36.5176 1059.35C37.2598 1058.41 38.3438 1057.94 39.7695 1057.94C42.3281 1057.94 43.6107 1059.49 43.6172 1062.6L43.2754 1063.26H37.2891C37.3281 1064.27 37.582 1065.12 38.0508 1065.83C38.5195 1066.54 39.1738 1066.9 40.0137 1066.9ZM39.6914 1058.98C38.9297 1058.98 38.3633 1059.29 37.9922 1059.9C37.6211 1060.52 37.3932 1061.29 37.3086 1062.24L41.752 1061.92L41.7715 1061.52C41.7715 1060.77 41.5957 1060.16 41.2441 1059.69C40.8926 1059.21 40.375 1058.98 39.6914 1058.98ZM45.3066 1065.81C45.5345 1065.55 45.847 1065.42 46.2441 1065.42C46.6413 1065.42 46.9538 1065.55 47.1816 1065.79C47.4095 1066.03 47.5234 1066.38 47.5234 1066.82C47.5234 1067.24 47.4095 1067.57 47.1816 1067.82C46.9538 1068.07 46.6413 1068.2 46.2441 1068.2C45.847 1068.2 45.5345 1068.07 45.3066 1067.81C45.0788 1067.56 44.9648 1067.23 44.9648 1066.82C44.9648 1066.41 45.0788 1066.07 45.3066 1065.81Z" fill="black"/>
<path d="M12.6797 689.703C14.1445 689.703 15.3945 689.996 16.4297 690.582C17.4648 691.168 18.2493 692.005 18.7832 693.092C19.3171 694.179 19.584 695.468 19.584 696.959C19.584 698.372 19.3073 699.618 18.7539 700.699C18.2005 701.78 17.403 702.62 16.3613 703.219C15.3197 703.818 14.0924 704.117 12.6797 704.117C12.2956 704.117 11.8431 704.098 11.3223 704.059C11.1204 704.059 10.8079 704.049 10.3848 704.029C9.9681 704.01 9.60677 704 9.30078 704C8.94271 704.013 8.50977 704.029 8.00195 704.049C7.49414 704.068 7.13932 704.085 6.9375 704.098L6.83984 703.102L8.42188 702.779C8.53906 701.992 8.59766 701.484 8.59766 701.256L8.59766 692.643C8.59766 692.402 8.53906 691.894 8.42188 691.119L6.87891 690.885L6.97656 689.801L8.93945 689.898C9.32357 689.885 9.85742 689.853 10.541 689.801C10.7168 689.788 11.0195 689.768 11.4492 689.742C11.8854 689.716 12.2956 689.703 12.6797 689.703ZM12.6992 690.904C11.8333 690.904 11.1204 690.937 10.5605 691.002C10.4694 691.881 10.4238 692.626 10.4238 693.238L10.4238 700.66C10.4238 701.07 10.4401 701.5 10.4727 701.949C10.5052 702.398 10.5345 702.701 10.5605 702.857C11.2507 702.91 11.9635 702.936 12.6992 702.936C13.7799 702.936 14.6849 702.675 15.4141 702.154C16.1497 701.627 16.6966 700.914 17.0547 700.016C17.4193 699.111 17.6016 698.092 17.6016 696.959C17.6016 695.813 17.4193 694.785 17.0547 693.873C16.6966 692.955 16.1497 692.232 15.4141 691.705C14.6849 691.171 13.7799 690.904 12.6992 690.904ZM19.9551 701.812C20.1829 701.552 20.4954 701.422 20.8926 701.422C21.2897 701.422 21.6022 701.546 21.8301 701.793C22.0579 702.034 22.1719 702.376 22.1719 702.818C22.1719 703.235 22.0579 703.57 21.8301 703.824C21.6022 704.072 21.2897 704.195 20.8926 704.195C20.4954 704.195 20.1829 704.068 19.9551 703.814C19.7272 703.561 19.6133 703.229 19.6133 702.818C19.6133 702.408 19.7272 702.073 19.9551 701.812ZM25.6875 701.236C25.6875 701.477 25.7624 701.92 25.9121 702.564C26.8171 702.923 27.6829 703.102 28.5098 703.102C29.3236 703.102 29.9648 702.887 30.4336 702.457C30.9089 702.021 31.1465 701.402 31.1465 700.602C31.1465 700.12 31.0098 699.703 30.7363 699.352C30.4629 699 30.1276 698.694 29.7305 698.434C29.3333 698.173 28.7865 697.867 28.0898 697.516C27.276 697.105 26.6185 696.734 26.1172 696.402C25.6224 696.07 25.1992 695.65 24.8477 695.143C24.5026 694.635 24.3301 694.02 24.3301 693.297C24.3301 692.125 24.7337 691.217 25.541 690.572C26.3483 689.921 27.39 689.596 28.666 689.596C29.6556 689.596 31.0033 689.811 32.709 690.24L32.4258 693.258L31.2539 693.141V692.262C31.2539 692.171 31.2148 691.985 31.1367 691.705C31.0651 691.419 31.0163 691.23 30.9902 691.139C30.5931 690.963 30.2155 690.846 29.8574 690.787C29.5059 690.729 29.0892 690.699 28.6074 690.699C27.9564 690.699 27.4128 690.895 26.9766 691.285C26.5469 691.669 26.332 692.213 26.332 692.916C26.332 693.359 26.4622 693.749 26.7227 694.088C26.9831 694.426 27.3086 694.723 27.6992 694.977C28.0964 695.23 28.6335 695.533 29.3105 695.885C30.1504 696.295 30.834 696.679 31.3613 697.037C31.8887 697.389 32.3346 697.838 32.6992 698.385C33.0638 698.925 33.2461 699.583 33.2461 700.357C33.2461 701.64 32.8001 702.62 31.9082 703.297C31.0163 703.967 29.8704 704.303 28.4707 704.303C27.6699 704.303 26.944 704.221 26.293 704.059C25.6484 703.902 25.1146 703.733 24.6914 703.551C24.2747 703.368 24.0664 703.264 24.0664 703.238L24.3691 700.162L25.6875 700.279V701.236Z" fill="black"/>
<line x1="15.5" y1="2.18557e-08" x2="15.5" y2="1080" stroke="black"/>
</g>
<defs>
<filter id="filter0_d_811_100" x="-4" y="0" width="55.5234" height="1088" filterUnits="userSpaceOnUse" color-interpolation-filters="sRGB">
<feFlood flood-opacity="0" result="BackgroundImageFix"/>
<feColorMatrix in="SourceAlpha" type="matrix" values="0 0 0 0 0 0 0 0 0 0 0 0 0 0 0 0 0 0 127 0" result="hardAlpha"/>
<feOffset dy="4"/>
<feGaussianBlur stdDeviation="2"/>
<feComposite in2="hardAlpha" operator="out"/>
<feColorMatrix type="matrix" values="0 0 0 0 0 0 0 0 0 0 0 0 0 0 0 0 0 0 0.25 0"/>
<feBlend mode="normal" in2="BackgroundImageFix" result="effect1_dropShadow_811_100"/>
<feBlend mode="normal" in="SourceGraphic" in2="effect1_dropShadow_811_100" result="shape"/>
</filter>
</defs>
</svg>
