<svg width="235" height="77" viewBox="0 0 235 77" fill="none" xmlns="http://www.w3.org/2000/svg">
<g clip-path="url(#clip0_806_74)">
<path d="M54.5541 75.0722H15.1917C14.4427 75.0722 13.7278 74.7403 13.2427 74.1701L12.2639 73.0126C11.3958 71.9913 11.4554 70.4509 12.4342 69.5317C16.8853 65.3614 19.2173 60.4677 19.2173 54.8506C19.2173 42.5951 13.3959 35.3439 13.3959 24.0075C13.3959 11.5477 20.7492 2.25391 33.6175 2.25391C42.7326 2.25391 49.3199 8.73913 50.7668 17.4882C50.937 18.5095 50.4434 19.5308 49.5582 20.067C48.0178 20.9947 46.0688 20.084 45.7284 18.3223C44.4943 11.9307 40.0772 7.46251 33.2175 7.46251C24.128 7.46251 18.5109 13.8967 18.5109 24.0075C18.5109 34.8332 24.3323 41.9823 24.3323 54.8506C24.3323 59.3273 23.2088 62.9869 21.396 66.1955C20.4428 67.8806 21.7024 69.9658 23.6429 69.9658H54.5711C55.9839 69.9658 57.1243 71.1062 57.1243 72.519C57.1243 73.9318 55.9839 75.0722 54.5711 75.0722H54.5541Z" fill="black"/>
<path d="M74.0521 3.59054H107.431C108.759 3.59054 109.84 4.67141 109.84 5.9991V6.29697C109.84 7.62466 108.759 8.70553 107.431 8.70553H79.1586C77.8309 8.70553 76.75 9.7864 76.75 11.1141V32.8081C76.75 34.5443 78.5118 35.6762 80.1118 35.0124C83.2353 33.7102 86.6821 33.1145 90.0269 33.1145C94.7504 33.1145 98.9377 34.0507 102.98 36.1869C104.01 36.7316 104.478 37.9571 104.112 39.0635C103.661 40.4253 102.112 41.0976 100.81 40.4763C97.4653 38.8848 94.0014 38.221 90.129 38.221C85.7374 38.221 81.1671 39.5061 77.6862 42.2295C77.099 42.6891 76.75 43.3955 76.75 44.1445V67.5832C76.75 68.9109 77.8309 69.9917 79.1586 69.9917H109.576C110.904 69.9917 111.985 71.0726 111.985 72.4003V72.6982C111.985 74.0259 110.904 75.1067 109.576 75.1067H74.0521C72.7244 75.1067 71.6436 74.0259 71.6436 72.6982V5.99059C71.6436 4.6629 72.7244 3.58203 74.0521 3.58203V3.59054Z" fill="black"/>
<path d="M225.749 5.8802C223.715 34.1871 194.582 35.0637 186.821 61.2429C186.344 62.8429 187.833 64.3153 189.45 63.8983C190.948 63.5068 192.506 63.3281 193.995 63.3281C205.025 63.3281 210.336 71.192 218.608 71.192C224.736 71.192 227.902 66.3919 227.902 61.2855C227.902 57.013 225.902 53.2342 221.774 51.2257C220.523 50.6129 220.2 48.9789 221.102 47.915L221.502 47.4384C222.106 46.7235 223.119 46.4597 223.979 46.8426C229.63 49.3363 233.009 54.8258 233.009 61.694C233.009 69.6601 227.596 76.2985 218.915 76.2985C209.519 76.2985 202.983 68.4345 193.995 68.4345C189.961 68.4345 186.318 69.8473 185.28 73.4474C185.008 74.3921 184.182 75.0729 183.195 75.0729H182.106C180.88 75.0729 179.901 74.0431 179.952 72.8176C181.433 35.6254 212.472 34.3743 219.417 12.3739C219.928 10.7654 218.489 9.22494 216.847 9.61644C208.183 11.6846 202.336 7.35257 192.565 7.35257C187.05 7.35257 182.863 10.2122 182.863 16.34C182.863 20.323 186.029 22.9784 189.91 22.8763C190.353 22.8422 190.812 22.7741 191.289 22.672C192.676 22.3826 193.936 23.5741 193.808 24.9869C193.731 25.8635 193.136 26.5955 192.293 26.8593C191.136 27.2168 189.859 27.4721 188.778 27.4721C182.242 27.4721 177.748 22.672 177.748 16.0336C177.748 6.73979 184.999 2.24609 193.374 2.24609C204.08 2.24609 208.991 8.14407 220.37 3.72697C220.617 3.63335 220.881 3.57378 221.145 3.57378H223.596C224.838 3.57378 225.834 4.62912 225.749 5.87169V5.8802Z" fill="black"/>
<path d="M134.522 32.8003V11.0978C134.522 9.77008 135.602 8.68921 136.93 8.68921H165.203C166.531 8.68921 167.611 7.60833 167.611 6.28065V5.98277C167.611 4.65509 166.531 3.57422 165.203 3.57422H131.824C130.496 3.57422 129.415 4.65509 129.415 5.98277V72.6563C129.415 73.984 130.496 75.0649 131.824 75.0649H174.326C175.654 75.0649 176.735 73.984 176.735 72.6563V72.3584C176.735 71.0308 175.654 69.9499 174.326 69.9499H136.93C135.602 69.9499 134.522 68.869 134.522 67.5413V44.1026" fill="black"/>
<path d="M35.7625 58.3764C36.3242 56.9125 38.869 49.355 31.6092 43.8314C24.8091 38.6654 13.4898 40.359 7.09816 46.4357C-1.42965 55.9763 1.82998 73.7979 18.6303 72.5554" stroke="black" stroke-width="6" stroke-miterlimit="10" stroke-linecap="round"/>
<path d="M131.96 14.0088C131.96 14.0088 131.534 2.80855 124.215 2.55323C116.896 2.30642 116.411 12.5109 118.249 15.5833C126.853 30.009 131.892 46.554 131.892 58.8862C131.892 71.2183 124.215 72.18 126.743 72.6992C129.27 73.2183 154.011 72.58 154.011 72.58" stroke="black" stroke-width="6" stroke-miterlimit="10" stroke-linecap="round"/>
<path d="M74.1293 14.0088C74.1293 14.0088 73.7037 2.80855 66.3844 2.55323C59.0652 2.30642 58.58 12.5109 60.4184 15.5833C69.0228 30.009 74.0612 46.554 74.0612 58.8862C74.0612 71.2183 66.3844 72.18 68.9121 72.6992C71.4399 73.2183 96.1807 72.58 96.1807 72.58" stroke="black" stroke-width="6" stroke-miterlimit="10" stroke-linecap="round"/>
<path d="M163.662 16.9793C165.124 16.9793 166.309 15.7942 166.309 14.3324C166.309 12.8706 165.124 11.6855 163.662 11.6855C162.201 11.6855 161.016 12.8706 161.016 14.3324C161.016 15.7942 162.201 16.9793 163.662 16.9793Z" fill="black"/>
<path d="M7.14051 36.1121C8.60233 36.1121 9.78736 34.927 9.78736 33.4652C9.78736 32.0034 8.60233 30.8184 7.14051 30.8184C5.67869 30.8184 4.49365 32.0034 4.49365 33.4652C4.49365 34.927 5.67869 36.1121 7.14051 36.1121Z" fill="black"/>
<path d="M232.353 7.84645C233.815 7.84645 235 6.66141 235 5.19959C235 3.73777 233.815 2.55273 232.353 2.55273C230.892 2.55273 229.707 3.73777 229.707 5.19959C229.707 6.66141 230.892 7.84645 232.353 7.84645Z" fill="black"/>
<path d="M232.353 15.9324C233.815 15.9324 235 14.7473 235 13.2855C235 11.8237 233.815 10.6387 232.353 10.6387C230.892 10.6387 229.707 11.8237 229.707 13.2855C229.707 14.7473 230.892 15.9324 232.353 15.9324Z" fill="black"/>
<path d="M105.474 40.3068C100.589 36.5536 97.1167 39.2515 96.4273 41.8388C95.8231 44.0856 96.4273 46.375 98.5295 47.9325C99.0572 48.324 99.6785 48.6644 100.41 48.9538C108.121 52.0517 114.011 47.4219 119.441 42.6984C119.909 42.2899 124.564 38.6728 126.556 38.6728" stroke="black" stroke-width="6" stroke-miterlimit="10" stroke-linecap="round"/>
<path d="M133.416 38.6647C133.416 38.6647 139.416 43.652 150.003 43.652C159.11 43.652 162.539 32.6986 169.757 33.4901C170.659 33.5923 171.45 33.7625 172.14 34.0008C172.829 34.2391 173.425 34.537 173.935 34.8859C175.348 35.8987 176.31 36.9796 176.923 38.1115C177.229 38.6732 177.442 39.2519 177.578 39.8392C177.833 41.269 177.85 42.6052 177.689 43.8733C177.604 44.5031 177.476 45.1159 177.306 45.7201C175.604 52.0437 169.646 56.2991 166.812 62.2907C166.523 62.9545 166.284 63.6439 166.105 64.3673C165.918 64.912 165.782 65.4567 165.705 65.9929C165.501 67.5759 165.816 69.1759 167.093 70.7674C169.22 72.8951 171.935 72.6568 174.301 72.5206" stroke="black" stroke-width="6" stroke-miterlimit="10" stroke-linecap="round"/>
<path d="M204.2 36.6309C210.157 49.9928 220.089 46.3672 224.626 49.9928" stroke="black" stroke-width="6" stroke-miterlimit="10" stroke-linecap="round"/>
</g>
<defs>
<clipPath id="clip0_806_74">
<rect width="235" height="76.2993" fill="white"/>
</clipPath>
</defs>
</svg>
