<svg width="671" height="79" viewBox="0 0 671 79" fill="none" xmlns="http://www.w3.org/2000/svg">
<g clip-path="url(#clip0_806_43)">
<path d="M36.0406 19.3547C34.9581 18.7877 34.477 17.5505 34.7605 16.3563C34.855 15.9439 34.8894 15.523 34.855 15.0934C34.6488 9.62931 28.5662 7.67048 23.2052 7.67048C17.0194 7.67048 10.2151 10.7634 10.2151 17.1553C10.2151 32.0011 49.907 28.3928 49.907 56.7442C49.907 70.1466 37.8448 77.4664 25.3702 77.4664C12.8956 77.4664 0 71.5986 0 58.8147C0 50.8763 6.08266 44.4843 14.3303 44.4843C19.5796 44.4843 24.4166 46.1339 28.8497 49.2783C29.7861 49.9484 30.1727 51.1598 29.7861 52.2423C29.2105 53.8918 27.2259 54.476 25.8169 53.4623C22.2258 50.8849 18.4971 49.6649 14.6482 49.7422C9.39032 49.7422 5.16339 53.763 5.16339 59.227C5.16339 67.8871 14.9575 72.3202 25.3702 72.3202C36.6077 72.3202 44.7522 66.1345 44.7522 56.4435C44.7522 32.4221 4.8541 37.0614 4.8541 16.7515C4.84551 7.26669 14.6396 2.73047 23.1966 2.73047C31.7536 2.73047 39.795 6.75121 40.1043 15.102C40.1473 16.0642 40.0356 16.9921 39.7864 17.8426C39.3311 19.4062 37.5527 20.1537 36.1094 19.3976L36.032 19.3633L36.0406 19.3547Z" fill="black"/>
<path d="M90.0372 2.52539C110.863 2.52539 121.481 20.7734 121.481 40.0523C121.481 59.3313 110.76 77.5792 89.0063 77.5792C67.253 77.5792 57.562 59.3313 57.562 40.0523C57.562 20.7734 68.284 2.52539 90.0372 2.52539ZM89.5218 72.3213C107.77 72.3213 116.327 56.6508 116.327 40.0523C116.327 23.4539 107.77 7.78328 89.5218 7.78328C71.2738 7.78328 62.7168 23.4539 62.7168 40.0523C62.7168 56.6508 71.2738 72.3213 89.5218 72.3213Z" fill="black"/>
<path d="M170.297 4.07227C171.689 4.07227 172.823 5.20632 172.823 6.59812C172.909 40.6885 172.832 44.778 172.823 69.0313C172.823 69.0313 170.091 63.55 165.443 69.8904C161.895 74.7445 156.173 77.5711 148.278 77.5711C135.185 77.5711 126.422 67.2615 126.422 54.5807C126.422 39.7349 137.04 29.5284 137.04 18.1878C137.04 13.0416 134.42 9.94873 128.535 9.33016C127.221 9.1927 126.215 8.1016 126.215 6.77853C126.215 5.24928 127.556 4.04649 129.076 4.22691C136.705 5.129 142.195 9.75973 142.195 18.4971C142.195 30.3531 131.679 41.6937 131.679 54.5807C131.679 65.5089 139.205 72.4163 148.793 72.4163C163.742 72.4163 167.763 56.8488 167.763 42.9308V6.59812C167.763 5.19773 168.897 4.07227 170.289 4.07227H170.297Z" fill="black"/>
<path d="M193.064 76.2379H187.91V6.64811C187.91 5.22195 189.061 4.07072 190.487 4.07072C191.913 4.07072 193.064 5.22195 193.064 6.64811V10.5572C193.064 11.485 194.224 11.8716 194.8 11.1414C198.683 6.167 204.457 2.73047 212.447 2.73047C228.633 2.73047 236.159 14.9989 236.159 27.0611C236.159 39.9481 229.973 51.4948 229.973 63.3509C229.973 68.7033 232.61 70.7051 238.169 71.0315C239.526 71.1089 240.592 72.2429 240.592 73.6003V73.6175C240.592 75.0952 239.346 76.2722 237.868 76.1949C228.761 75.7052 224.724 71.6157 224.724 63.1447C224.724 50.6701 231.012 38.9171 231.012 27.0611C231.012 16.4422 224.208 7.78217 212.146 7.98836C199.053 8.19455 193.073 20.3599 193.073 31.8035V76.2379H193.064Z" fill="black"/>
<path d="M253.101 6.23728C253.101 5.04309 254.071 4.07227 255.266 4.07227H262.173C283.823 4.07227 297.638 17.784 297.638 39.7435C297.638 61.7029 284.339 76.2394 261.658 76.2394H255.266C254.071 76.2394 253.101 75.2686 253.101 74.0744V6.23728ZM258.255 11.3921V69.0227C258.255 70.2169 259.226 71.1877 260.42 71.1877C277.534 71.2908 292.483 62.5277 292.483 39.7435C292.483 19.4336 279.287 9.12397 262.173 9.22706H260.42C259.226 9.22706 258.255 10.1979 258.255 11.3921Z" fill="black"/>
<path d="M376.214 15.6268C375.57 17.0959 373.645 17.431 372.528 16.2711C367.717 11.2882 362.167 7.7743 354.1 7.7743C336.265 7.7743 328.429 22.8263 328.429 40.0433C328.429 57.2604 339.564 72.3124 355.956 72.3124C369.565 72.3124 379.049 62.9306 379.049 51.3839C379.049 45.3012 375.956 39.2186 370.08 39.0124C360.904 38.2907 359.358 49.0127 348.533 48.9096C344.254 48.8151 341.024 46.5641 339.263 43.6946C338.842 43.0073 338.859 42.131 339.263 41.4351C340.036 40.1121 341.866 39.9316 342.88 41.0743C344.332 42.7238 346.462 43.7462 349.048 43.7462C357.915 43.7462 358.121 33.2304 370.389 33.6428C380.08 34.0552 384.204 43.54 384.204 51.9939C384.204 67.7675 370.389 77.5617 355.543 77.5617C335.543 77.5617 323.274 58.7982 323.274 40.0347C323.274 20.1372 332.862 2.50781 354.822 2.50781C363.482 2.50781 370.492 6.54574 376.017 12.7229C376.609 13.3844 376.773 14.3295 376.42 15.1457L376.214 15.6096V15.6268Z" fill="black"/>
<path d="M431.07 6.62311V73.687C431.07 75.096 429.927 76.2386 428.518 76.2386H428.467C427.058 76.2386 425.915 75.096 425.915 73.687V57.7072C425.915 57.2862 425.812 56.8652 425.614 56.4958C420.477 46.9594 410.751 41.8046 399.935 41.8046C399.084 41.8046 398.277 41.8304 397.495 41.8733C396.009 41.9592 394.918 43.3081 395.124 44.7772C395.837 49.932 396.739 55.0095 396.739 60.465C396.739 70.0357 391.799 74.9156 383.508 76.0153C381.996 76.2129 380.63 75.0616 380.604 73.5324C380.579 72.2007 381.592 71.0839 382.916 70.9464C389.737 70.2419 391.584 67.0803 391.584 60.4736C391.584 51.0918 389.11 43.0503 389.11 33.5655C389.11 9.33797 405.811 4.28627 425.915 4.08008H428.518C429.927 4.08008 431.07 5.22272 431.07 6.6317V6.62311ZM394.196 34.2099C394.239 35.6962 395.51 36.856 396.988 36.7099C397.985 36.6068 398.999 36.5467 400.038 36.5467C407.951 36.5467 415.588 39.0382 421.766 43.961C423.441 45.2927 425.915 44.1157 425.915 41.9764V11.7521C425.915 10.3346 424.755 9.18333 423.338 9.19192C406.731 9.33797 393.689 15.6698 394.196 34.2013V34.2099Z" fill="black"/>
<path d="M502.026 73.3527C501.992 75.0452 500.359 76.2308 498.727 75.7755C483.22 71.4798 491.398 38.3603 472.592 41.0751C466.896 42.2349 461.105 43.936 456.586 47.9568C456.028 48.4551 455.693 49.1596 455.693 49.9156V73.6448C455.693 75.071 454.542 76.2222 453.115 76.2222C451.689 76.2222 450.538 75.071 450.538 73.6448V6.64966C450.538 5.2235 451.689 4.07227 453.115 4.07227H474.353C485.591 4.07227 495.488 10.258 495.488 22.3202C495.488 30.8085 492.129 34.8464 487.206 37.1661C485.711 37.8705 485.213 39.7692 486.244 41.0751C493.435 50.2249 491.596 68.49 500.205 70.8355C501.321 71.1362 502.069 72.1929 502.043 73.3527H502.026ZM455.676 11.7959V37.6987C455.676 39.6232 457.72 40.8861 459.422 39.9926C473.004 32.8188 490.213 38.7383 490.213 21.6931C490.213 12.8268 481.45 9.11538 473.408 9.21847H458.253C456.827 9.21847 455.676 10.3697 455.676 11.7959Z" fill="black"/>
<path d="M509.32 6.23728C509.32 5.04309 510.291 4.07227 511.485 4.07227H518.392C540.042 4.07227 553.857 17.784 553.857 39.7435C553.857 61.7029 540.558 76.2394 517.877 76.2394H511.485C510.291 76.2394 509.32 75.2686 509.32 74.0744V6.23728ZM514.475 11.3921V69.0227C514.475 70.2169 515.445 71.1877 516.64 71.1877C533.754 71.2908 548.702 62.5277 548.702 39.7435C548.702 19.4336 535.506 9.12397 518.392 9.22706H516.64C515.445 9.22706 514.475 10.1979 514.475 11.3921Z" fill="black"/>
<path d="M568.523 4.07227H602.218C603.558 4.07227 604.649 5.16336 604.649 6.50361V6.80431C604.649 8.14456 603.558 9.23565 602.218 9.23565H573.677C572.337 9.23565 571.246 10.3268 571.246 11.667V33.5663C571.246 35.3189 573.025 36.4616 574.64 35.7914C577.793 34.477 581.272 33.8756 584.649 33.8756C589.417 33.8756 593.644 34.8206 597.725 36.9771C598.764 37.5269 599.237 38.764 598.867 39.8809C598.412 41.2555 596.848 41.9343 595.534 41.3071C592.157 39.7005 588.661 39.0304 584.752 39.0304C580.319 39.0304 575.705 40.3277 572.191 43.0769C571.598 43.5408 571.246 44.2539 571.246 45.0099V68.6705C571.246 70.0107 572.337 71.1018 573.677 71.1018H604.383C605.723 71.1018 606.814 72.1929 606.814 73.5332V73.8339C606.814 75.1741 605.723 76.2652 604.383 76.2652H568.523C567.182 76.2652 566.091 75.1741 566.091 73.8339V6.50361C566.091 5.16336 567.182 4.07227 568.523 4.07227Z" fill="black"/>
<path d="M619.083 76.239C617.657 76.239 616.505 75.0878 616.505 73.6617V6.64929C616.505 5.22313 617.657 4.07189 619.083 4.07189C620.509 4.07189 621.66 5.22313 621.66 6.64929V10.0686C621.66 11.134 623 11.6237 623.671 10.7989C627.554 6.01353 633.241 2.74023 641.042 2.74023C657.228 2.74023 664.754 15.0087 664.754 27.0709C664.754 39.9579 658.568 51.5046 658.568 63.3606C658.568 68.713 661.206 70.7148 666.765 71.0413C668.122 71.1186 669.187 72.2527 669.187 73.6101V73.6273C669.187 75.105 667.942 76.282 666.464 76.2047C657.357 75.715 653.311 71.6255 653.311 63.1545C653.311 50.6798 659.599 38.9269 659.599 27.0709C659.599 16.452 652.795 7.79194 640.733 7.99813C627.64 8.20432 621.66 20.3696 621.66 31.8133V73.6702C621.66 75.0964 620.509 76.2476 619.083 76.2476V76.239Z" fill="black"/>
<path d="M600.929 18.3497C602.405 18.3497 603.601 17.1534 603.601 15.6778C603.601 14.2021 602.405 13.0059 600.929 13.0059C599.454 13.0059 598.257 14.2021 598.257 15.6778C598.257 17.1534 599.454 18.3497 600.929 18.3497Z" fill="black"/>
<path d="M386.627 67.5274C388.103 67.5274 389.299 66.3311 389.299 64.8555C389.299 63.3798 388.103 62.1836 386.627 62.1836C385.151 62.1836 383.955 63.3798 383.955 64.8555C383.955 66.3311 385.151 67.5274 386.627 67.5274Z" fill="black"/>
<path d="M668.328 55.9297C669.804 55.9297 671 54.7335 671 53.2578C671 51.7822 669.804 50.5859 668.328 50.5859C666.852 50.5859 665.656 51.7822 665.656 53.2578C665.656 54.7335 666.852 55.9297 668.328 55.9297Z" fill="black"/>
<path d="M668.328 64.0899C669.804 64.0899 671 62.8936 671 61.418C671 59.9423 669.804 58.7461 668.328 58.7461C666.852 58.7461 665.656 59.9423 665.656 61.418C665.656 62.8936 666.852 64.0899 668.328 64.0899Z" fill="black"/>
<path d="M238.874 58.0587C240.349 58.0587 241.545 56.8624 241.545 55.3867C241.545 53.9111 240.349 52.7148 238.874 52.7148C237.398 52.7148 236.202 53.9111 236.202 55.3867C236.202 56.8624 237.398 58.0587 238.874 58.0587Z" fill="black"/>
<path d="M56.4795 66.668C57.9552 66.668 59.1514 65.4718 59.1514 63.9961C59.1514 62.5205 57.9552 61.3242 56.4795 61.3242C55.0039 61.3242 53.8076 62.5205 53.8076 63.9961C53.8076 65.4718 55.0039 66.668 56.4795 66.668Z" fill="black"/>
<path d="M238.874 66.2208C240.349 66.2208 241.545 65.0245 241.545 63.5489C241.545 62.0732 240.349 60.877 238.874 60.877C237.398 60.877 236.202 62.0732 236.202 63.5489C236.202 65.0245 237.398 66.2208 238.874 66.2208Z" fill="black"/>
<path d="M500.643 19.3817C499.749 20.5587 499.13 21.7271 498.752 22.887C497.911 25.5073 498.572 30.138 500.9 33.6261C505.548 40.5851 517.284 41.8222 524.681 37.6984C535.377 31.736 535.034 16.0483 520.368 11.0481C519.019 10.524 517.645 10.1202 516.296 9.87109" stroke="black" stroke-width="6" stroke-miterlimit="10" stroke-linecap="round"/>
<path d="M568.643 14.0462C568.643 14.0462 568.007 2.8345 560.619 2.57676C553.23 2.32761 551.795 12.5169 554.596 15.7301C558.909 20.6873 568.368 46.9939 568.368 59.4428C568.368 71.8916 560.619 72.8624 563.17 73.3865C565.722 73.9106 590.697 73.5927 590.697 73.5927" stroke="black" stroke-width="6" stroke-miterlimit="10" stroke-linecap="round"/>
<path d="M255.704 14.0118C255.704 14.0118 255.162 2.83453 247.774 2.57679C240.385 2.32764 239.037 12.4396 241.751 15.7301C244.466 19.0206 255.523 46.994 255.523 59.4428C255.523 71.8916 247.774 72.8624 250.326 73.3865C252.877 73.9106 256.735 73.5927 256.735 73.5927" stroke="black" stroke-width="6" stroke-miterlimit="10" stroke-linecap="round"/>
<path d="M453.115 16.5113C453.115 16.5113 452.892 5.96113 444.275 5.70339C436.216 5.47142 435.082 14.982 437.702 18.4529C443.691 26.3913 452.72 48.7545 452.72 60.8168C452.72 72.879 444.266 73.824 447.05 74.3395C449.833 74.855 477.437 74.5371 477.437 74.5371" stroke="black" stroke-width="6" stroke-miterlimit="10" stroke-linecap="round"/>
<path d="M598.885 41.1343C598.369 40.6618 597.837 40.2494 597.304 39.9229C594.469 37.5174 590.534 40.0947 589.752 42.6721C589.228 44.966 589.752 47.2513 591.874 48.8235C592.407 49.2187 593.034 49.5624 593.773 49.8545C601.557 52.9817 607.614 48.4283 612.983 43.5399C615.045 41.667 617.064 40.8164 617.657 40.6188" stroke="black" stroke-width="6" stroke-miterlimit="10" stroke-linecap="round"/>
<path d="M126.619 20.0254C128.095 20.0254 129.291 18.8292 129.291 17.3535C129.291 15.8779 128.095 14.6816 126.619 14.6816C125.144 14.6816 123.947 15.8779 123.947 17.3535C123.947 18.8292 125.144 20.0254 126.619 20.0254Z" fill="black"/>
<path d="M373.86 14.055C373.285 13.5567 379.788 20.404 376.489 26.3578C376.146 26.9849 375.561 27.3629 375.003 27.6894C374.445 28.0159 373.843 28.2564 373.199 28.4455C363.602 31.5126 353.851 39.2448 355.303 49.4942C355.87 53.4806 357.554 57.3381 360.802 59.9155" stroke="black" stroke-width="6" stroke-miterlimit="10" stroke-linecap="round"/>
<path d="M4.08105 3.97656H41.3416" stroke="black" stroke-width="6" stroke-miterlimit="10" stroke-linecap="round"/>
<path d="M24.3394 49.3828C30.0182 52.321 32.7073 56.0669 34.039 63.2149C34.9411 68.069 38.0597 71.7117 40.6629 73.2066C43.9104 75.0623 51.7285 77.0469 55.6118 72.5536" stroke="black" stroke-width="6" stroke-miterlimit="10" stroke-linecap="round"/>
<path d="M170.091 49.0566C171.337 58.8679 173.339 72.5453 184.877 75.2086C189.362 76.2396 191.999 76.231 194.061 75.8444C198.606 74.9939 204.603 73.0952 207.025 63.5588C208.426 58.0689 207.206 51.2732 200.402 49.5549" stroke="black" stroke-width="6" stroke-miterlimit="10" stroke-linecap="round"/>
</g>
<defs>
<clipPath id="clip0_806_43">
<rect width="671" height="78.6536" fill="white"/>
</clipPath>
</defs>
</svg>
