<svg width="130" height="1080" viewBox="0 0 130 1080" fill="none" xmlns="http://www.w3.org/2000/svg">
<g clip-path="url(#clip0_725_400)">
<g clip-path="url(#clip1_725_400)">
<path d="M121.338 1058.03C121.462 1055.21 120.355 1052.87 118.44 1050.87C117.195 1049.57 115.92 1048.3 114.599 1047.07C113.927 1046.45 113.861 1046.07 114.528 1045.32C117.513 1041.93 120.424 1038.47 123.304 1035C123.646 1034.58 124.451 1034.09 123.675 1033.28C122.917 1032.49 122.325 1032.65 121.696 1033.39C120.157 1035.19 118.611 1036.99 117.07 1038.79C115.602 1040.51 114.119 1042.21 112.68 1043.95C112.104 1044.65 111.566 1044.74 110.841 1044.18C108.957 1042.75 106.96 1041.43 105.183 1039.88C104.095 1038.92 103.361 1037.57 103.833 1035.99C104.226 1034.67 105.868 1033.79 107.385 1034.06C108.741 1034.3 108.926 1035.34 108.986 1036.48C109.064 1037.96 109.84 1039.12 110.87 1039.42C112.015 1039.74 113.365 1039.16 114.094 1038.02C114.793 1036.93 114.704 1035.81 113.705 1034.6C111.724 1032.19 108.957 1031.7 106.146 1032.15C103.008 1032.66 100.606 1034.49 99.4516 1037.56C98.1906 1040.9 99.3782 1043.79 101.56 1046.29C102.892 1047.82 104.484 1049.14 106.059 1050.43C106.824 1051.06 106.688 1051.42 106.137 1052.05C102.901 1055.75 99.7029 1059.48 96.487 1063.2C96.0533 1063.7 95.6663 1064.13 96.4536 1064.71C97.0941 1065.18 97.4855 1065.33 98.0905 1064.59C100.201 1062.01 102.396 1059.51 104.556 1056.97C105.763 1055.55 106.94 1054.11 108.185 1052.72C108.35 1052.54 108.952 1052.48 109.146 1052.63C111.379 1054.36 113.75 1055.97 115.729 1057.95C117.653 1059.88 117.297 1061.97 115.907 1063.16C114.713 1064.18 113.334 1064.31 111.921 1063.88C111.081 1063.62 110.511 1063.16 110.847 1061.97C111.132 1060.97 111.432 1059.69 110.305 1058.84C109.391 1058.15 108.414 1058.12 107.453 1058.78C106.522 1059.43 105.803 1061.32 106.29 1062.25C106.731 1063.08 107.244 1064.07 108.005 1064.51C113.378 1067.64 118.934 1066.26 121.207 1060.06C121.429 1059.45 121.304 1058.71 121.34 1058.04L121.338 1058.03Z" fill="black"/>
<path d="M98.1194 1049.05C96.8339 1049.08 96.0222 1049.92 96.0444 1051.2C96.0666 1052.44 96.9562 1053.26 98.2439 1053.22C99.3781 1053.19 100.599 1052.13 100.615 1051.16C100.63 1050.14 99.3025 1049.01 98.1216 1049.05H98.1194Z" fill="black"/>
<path d="M121.701 1048.42C122.999 1048.46 123.842 1047.66 123.865 1046.39C123.887 1045.09 123.097 1044.27 121.803 1044.25C120.626 1044.22 119.299 1045.37 119.328 1046.37C119.354 1047.32 120.598 1048.39 121.703 1048.42H121.701Z" fill="black"/>
</g>
<path d="M53.2939 0V1080" stroke="black"/>
<path d="M109.696 0V1080" stroke="black"/>
<ellipse cx="125.249" cy="855" rx="5.11416" ry="5" fill="black"/>
<ellipse cx="125.249" cy="893" rx="5.11416" ry="5" fill="black"/>
<g clip-path="url(#clip2_725_400)">
<path d="M82.2116 881.816C88.4788 890.337 88.7628 900.708 86.6027 910.161L85.7306 913.331C83.7429 919.75 78.3579 925.591 70.7115 928.634C57.9235 933.914 41.8497 928.927 31.029 922.761C28.7777 921.488 26.7596 919.718 25.0458 918.018C21.5572 914.62 18.4945 910.936 16.0201 907.023C5.53412 890.511 4.3476 870.876 7.61306 852.878C11.7101 831.48 27.794 815.118 47.833 800.961C56.098 795.381 65.002 790.417 71.4822 783.532C79.7574 775.114 82.9418 764.419 83.4387 753.969C83.5908 747.843 83.175 740.975 81.4612 734.991C78.1957 722.367 69.961 711.143 61.7771 700.061C57.7105 694.465 53.8061 688.742 50.9869 682.663C48.6747 677.581 47.2347 672.237 46.9507 666.839C46.7682 663.874 46.6769 660.159 46.687 657.179C46.829 650.729 47.3766 644.287 48.8268 637.916C49.8612 633.624 51.0477 629.435 53.4005 625.403C53.6135 625.048 54.1611 624.898 54.6073 625.064C54.9521 625.19 55.1448 625.459 55.1346 625.735C56.4936 776.023 57.4164 956.966 54.2016 1107C52.934 1069.33 53.0861 1004.15 52.5791 966.315C51.7475 873.682 52.0314 775.058 52.7413 682.497L53.2889 625.735L55.0231 626.067C50.6421 633.782 49.1919 642.43 48.4516 650.808C48.1068 654.974 48.0358 659.408 48.1879 663.59C47.62 687.082 67.73 701.855 78.1754 722.367C85.2438 735.829 87.2112 750.982 84.1993 765.32C84.0167 766.277 83.0635 769.075 82.7896 770.095C82.2724 771.588 81.4307 773.264 80.8121 774.758C79.007 778.204 76.6035 781.817 73.7538 784.821C67.3142 791.919 58.248 797.238 50.0539 802.906C34.3249 814.304 19.8839 827.797 13.8296 844.12C13.0589 845.882 12.3794 848.404 11.7912 850.214L11.0813 853.32C8.52577 866.837 8.57648 880.915 13.1096 894.163C15.9085 902.281 20.6546 909.988 27.2768 916.635C28.9298 918.311 30.5524 919.805 32.7023 921.085C40.937 925.931 51.7678 929.772 62.2537 928.99C72.9223 927.891 81.5524 921.022 84.2297 913.023C87.5966 902.921 88.2355 891.452 81.8668 881.982C81.7045 881.8 82.0696 881.634 82.2014 881.808L82.2116 881.816Z" fill="black"/>
<path d="M58.8354 879.294C50.3371 879.531 43.218 875.199 41.9503 868.567C40.8247 862.402 42.2749 855.857 47.244 850.782C52.1929 845.613 60.5898 843.202 68.6521 843.067C89.695 842.166 101.043 857.382 104.998 871.484C109.409 887.356 108.365 903.655 105.576 919.606C102.889 935.629 95.5262 951.398 80.3651 962.852C72.0494 969.27 62.3443 974.424 52.416 979.119C49.3635 980.589 46.0879 982.47 43.4715 984.375C28.4017 994.952 21.5868 1010.87 20.3699 1026.32C19.0313 1038.01 21.7187 1049.9 28.5234 1060.41C33.6751 1068.27 42.4675 1078.1 54.6572 1078.69C62.1211 1078.79 68.6419 1075.25 73.1852 1070.74C79.3307 1064.59 83.1337 1056.83 83.6407 1048.88C83.6407 1048.69 84.0362 1048.69 84.0464 1048.88C84.1985 1052.91 83.3264 1056.95 81.7646 1060.81C77.9515 1070.32 68.7129 1080.64 54.6674 1080.99C41.0579 1080.79 30.9167 1070.27 25.045 1061.79C20.1265 1054.53 17.0943 1046.52 16.0396 1038.35C15.2283 1030.2 16.07 1021.96 18.2605 1013.98C22.1953 1000 31.8497 986.565 47.3657 978.526C49.0187 977.704 52.3552 976.147 54.0386 975.38C84.1579 962.045 100.069 946.766 104.278 919.472C107.097 900.43 106.915 878.772 96.7026 861.082C89.7761 849.62 77.9515 843.384 61.4721 846.332C51.5033 848.111 44.9724 854.758 43.8873 862.591C43.2484 866.362 43.3802 870.472 46.0879 873.745C48.7246 876.993 53.8054 878.78 58.8151 878.993C58.9368 878.993 59.0281 879.064 59.0281 879.159C59.0281 879.238 58.9368 879.309 58.8354 879.309V879.294Z" fill="black"/>
</g>
<g clip-path="url(#clip3_725_400)">
<path d="M109.532 489.672C109.532 485.073 109.553 480.471 109.514 475.871C109.506 474.997 109.762 474.781 110.623 474.725C112.434 474.607 113.975 475.189 115.409 476.196C115.702 476.402 115.978 476.663 116.192 476.951C116.682 477.61 116.497 478.044 115.704 478.22C115.193 478.335 114.684 478.452 114.181 478.588C111.836 479.231 110.7 481.596 111.048 483.758C111.519 486.694 114.729 488.747 117.615 488.126C120.474 487.51 122.522 484.108 121.884 481.201C120.943 476.914 117.994 474.781 114.113 473.647C112.99 473.319 111.809 473.194 110.647 473.01C109.864 472.887 109.474 472.602 109.506 471.669C109.588 469.437 109.495 467.203 109.548 464.968C109.567 464.099 109.153 464.008 108.465 464C107.751 463.992 107.387 464.142 107.403 464.984C107.451 467.349 107.403 469.717 107.424 472.085C107.429 472.671 107.316 472.957 106.636 473.047C103.793 473.423 101.279 474.642 99.2442 476.652C96.7064 479.164 95.0409 482.249 94.3926 485.795C93.2963 491.792 94.4348 497.221 98.5432 501.887C100.762 504.407 103.453 505.977 106.718 506.575C107.371 506.695 107.427 507.127 107.427 507.676C107.414 510.742 107.443 513.811 107.408 516.878C107.4 517.667 107.585 517.995 108.441 518.003C109.322 518.011 109.567 517.723 109.553 516.854C109.506 513.921 109.561 510.985 109.522 508.052C109.511 507.185 109.775 506.911 110.655 506.721C112.044 506.425 113.454 505.969 114.695 505.284C116.772 504.135 118.809 502.77 119.85 500.527C120.622 498.869 121.025 497.034 121.531 495.261C121.57 495.123 121.12 494.653 120.93 494.672C120.414 494.723 119.51 494.2 119.502 495.293C119.481 497.973 118.234 500.042 116.426 501.839C114.806 503.45 112.829 504.327 110.587 504.628C109.759 504.74 109.511 504.41 109.519 503.578C109.553 498.944 109.535 494.309 109.535 489.675L109.532 489.672ZM107.416 489.918C107.416 494.349 107.398 498.781 107.432 503.21C107.44 504.098 107.174 504.052 106.602 503.652C105.295 502.732 104.423 501.474 103.811 500.01C103.026 498.128 102.712 496.149 102.575 494.12C102.291 489.872 102.119 485.622 103.237 481.471C103.79 479.415 104.728 477.498 106.51 476.175C106.736 476.007 107.016 475.916 107.271 475.791C107.319 476.068 107.411 476.348 107.411 476.626C107.419 481.057 107.416 485.489 107.416 489.918Z" fill="black"/>
</g>
</g>
<defs>
<clipPath id="clip0_725_400">
<rect width="130" height="1080" fill="white"/>
</clipPath>
<clipPath id="clip1_725_400">
<rect width="28" height="34.125" fill="white" transform="translate(96 1032)"/>
</clipPath>
<clipPath id="clip2_725_400">
<rect width="102" height="456" fill="white" transform="translate(6 625)"/>
</clipPath>
<clipPath id="clip3_725_400">
<rect width="28" height="54" fill="white" transform="translate(94 464)"/>
</clipPath>
</defs>
</svg>
